<svg width="30" height="30" viewBox="0 0 30 30" fill="none" xmlns="http://www.w3.org/2000/svg">
<g id="Icons">
<g id="Group 52">
<path id="Arrow 5" d="M1.21729 15.6526C0.665 15.6526 0.217285 16.1003 0.217285 16.6526C0.217285 17.2049 0.665 17.6526 1.21729 17.6526V15.6526ZM28.5344 17.3597C28.9249 16.9692 28.9249 16.336 28.5344 15.9455L22.1704 9.58152C21.7799 9.191 21.1467 9.191 20.7562 9.58152C20.3657 9.97204 20.3657 10.6052 20.7562 10.9957L26.413 16.6526L20.7562 22.3094C20.3657 22.7 20.3657 23.3331 20.7562 23.7237C21.1467 24.1142 21.7799 24.1142 22.1704 23.7237L28.5344 17.3597ZM1.21729 17.6526H27.8273V15.6526H1.21729V17.6526Z" fill="#9E9C9C"/>
</g>
</g>
</svg>
