<svg width="31" height="30" viewBox="0 0 31 30" fill="none" xmlns="http://www.w3.org/2000/svg">
<g clip-path="url(#clip0_812_1225)">
<path d="M6.41981 3L5.29679 4.61129L18.8151 14.0349L19.9423 12.4246L6.41981 3ZM21.6045 11.6663L19.1164 15.2348L19.054 15.2815C17.1217 16.6736 15.5479 17.0216 13.9688 17.0996C14.109 17.3333 14.3064 17.6138 14.5505 17.8995C15.044 18.4813 15.7089 19.1306 16.4621 19.7279C17.1841 20.2941 17.9788 20.8031 18.7684 21.1719L20.6072 21.1096C20.4461 19.8889 20.3994 18.4761 21.5421 16.8346L23.9939 13.3233L21.6045 11.6663ZM23.8536 15.1569L22.7316 16.7619L23.9056 17.5826L25.0276 15.9724L23.8536 15.1569ZM6.4167 19.3851C6.1897 19.3851 5.99284 19.4526 5.87648 19.5357C5.76013 19.6188 5.7352 19.6863 5.7352 19.7383C5.7352 19.7902 5.76013 19.8578 5.87648 19.9409C5.99284 20.024 6.1897 20.0915 6.4167 20.0915C6.64369 20.0915 6.84056 20.024 6.95691 19.9409C7.07586 19.8578 7.10183 19.7902 7.10183 19.7383C7.10183 19.6863 7.07586 19.6188 6.95691 19.5357C6.84056 19.4526 6.64369 19.3851 6.4167 19.3851ZM5.67806 20.8862C5.5804 21.2498 5.4386 21.6031 5.24485 22.0238C4.87813 22.0134 4.51141 21.9978 4.14417 21.9823C3.40812 22.4601 2.99933 23.125 2.83519 23.8211L4.81164 24.2418L2.75 24.6106V24.6625C2.77805 25.6391 3.2658 26.4494 3.80497 26.6624C10.9976 27.1091 18.0827 26.9896 25.147 26.7611C25.0379 26.5065 24.9444 26.226 24.8717 25.9196L24.7367 25.3545L24.7107 25.0229C24.6951 24.8151 24.7107 24.647 24.7107 24.4236C24.7107 23.525 24.8665 22.7147 25.1522 22.0809C25.1886 21.9926 25.2301 21.9095 25.2769 21.8316V21.8004C19.4852 22.1796 13.6415 22.2576 7.75632 22.1017C7.44466 21.707 7.25247 21.3174 7.13819 20.8966C6.91795 20.9797 6.67382 21.0265 6.4167 21.0265C6.15334 21.0265 5.90297 20.9797 5.67806 20.8862ZM26.5339 21.8472C26.4872 21.8472 26.43 21.8628 26.3313 21.9615C26.2275 22.055 26.108 22.2264 26.0041 22.4601C25.7963 22.9328 25.6457 23.6393 25.6457 24.4236C25.6457 24.5379 25.6509 24.6522 25.6561 24.7612L25.6543 25.0229L25.8535 25.9611C25.9002 26.117 25.947 26.2624 26.0041 26.3871C26.108 26.6208 26.2275 26.7922 26.3313 26.8857C26.43 26.9844 26.4872 27 26.5339 27C26.5807 27 26.6378 26.9844 26.7365 26.8857C26.8404 26.7922 26.9599 26.6208 27.0637 26.3871C27.2715 25.9144 27.4222 25.2079 27.4222 24.4236C27.4222 23.6393 27.2715 22.9328 27.0637 22.4601C26.9599 22.2264 26.8404 22.055 26.7365 21.9615C26.6378 21.8628 26.5807 21.8472 26.5339 21.8472Z" stroke="white" stroke-width="0.975" stroke-linejoin="round"/>
</g>
<defs>
<clipPath id="clip0_812_1225">
<rect width="30" height="30" fill="white" transform="translate(0.5)"/>
</clipPath>
</defs>
</svg>
