<svg width="30" height="31" viewBox="0 0 30 31" fill="none" xmlns="http://www.w3.org/2000/svg">
<g id="Icons">
<g id="Subtract">
<mask id="path-1-inside-1_662_476" fill="white">
<path fill-rule="evenodd" clip-rule="evenodd" d="M15.0359 27.4096C17.7086 24.5372 22.5718 16.6217 22.5718 12.4597C22.5718 8.29776 19.1978 4.92383 15.0359 4.92383C10.8739 4.92383 7.5 8.29776 7.5 12.4597C7.5 16.6217 12.2891 24.6456 15.0359 27.4096ZM15.0359 15.1228C16.7026 15.1228 18.0536 13.7717 18.0536 12.1051C18.0536 10.4384 16.7026 9.08734 15.0359 9.08734C13.3693 9.08734 12.0182 10.4384 12.0182 12.1051C12.0182 13.7717 13.3693 15.1228 15.0359 15.1228Z"/>
</mask>
<path d="M15.0359 27.4096L14.2379 28.2026L15.0626 29.0324L15.8595 28.1759L15.0359 27.4096ZM21.4468 12.4597C21.4468 13.3094 21.1921 14.4416 20.7125 15.764C20.2391 17.0694 19.5738 18.4866 18.8171 19.882C17.2958 22.6875 15.4639 25.2981 14.2123 26.6432L15.8595 28.1759C17.2805 26.6487 19.2166 23.8654 20.795 20.9545C21.5883 19.4918 22.3058 17.9702 22.8277 16.5311C23.3435 15.109 23.6968 13.691 23.6968 12.4597H21.4468ZM15.0359 6.04883C18.5765 6.04883 21.4468 8.91908 21.4468 12.4597H23.6968C23.6968 7.67644 19.8192 3.79883 15.0359 3.79883V6.04883ZM8.625 12.4597C8.625 8.91908 11.4953 6.04883 15.0359 6.04883V3.79883C10.2526 3.79883 6.375 7.67644 6.375 12.4597H8.625ZM15.8339 26.6166C14.5673 25.3421 12.7435 22.7496 11.2292 19.9271C10.4779 18.5265 9.81918 17.0995 9.35096 15.7852C8.87676 14.4542 8.625 13.3128 8.625 12.4597H6.375C6.375 13.6876 6.72188 15.11 7.23145 16.5403C7.74703 17.9875 8.45729 19.5196 9.24653 20.9907C10.8135 23.9117 12.7576 26.7131 14.2379 28.2026L15.8339 26.6166ZM16.9286 12.1051C16.9286 13.1504 16.0812 13.9978 15.0359 13.9978V16.2478C17.3239 16.2478 19.1786 14.393 19.1786 12.1051H16.9286ZM15.0359 10.2123C16.0812 10.2123 16.9286 11.0597 16.9286 12.1051H19.1786C19.1786 9.8171 17.3239 7.96234 15.0359 7.96234V10.2123ZM13.1432 12.1051C13.1432 11.0597 13.9906 10.2123 15.0359 10.2123V7.96234C12.748 7.96234 10.8932 9.8171 10.8932 12.1051H13.1432ZM15.0359 13.9978C13.9906 13.9978 13.1432 13.1504 13.1432 12.1051H10.8932C10.8932 14.393 12.748 16.2478 15.0359 16.2478V13.9978Z" fill="white" mask="url(#path-1-inside-1_662_476)"/>
</g>
</g>
</svg>
