<svg width="30" height="31" viewBox="0 0 30 31" fill="none" xmlns="http://www.w3.org/2000/svg">
<g id="Icons">
<path id="Vector 7" d="M2 23.4169H7.83707C8.00921 23.4169 8.14876 23.2773 8.14876 23.1052V17.9396C8.14876 17.7674 8.28831 17.6279 8.46045 17.6279H13.7875C13.9596 17.6279 14.0992 17.4883 14.0992 17.3162V11.9509C14.0992 11.7788 14.2387 11.6393 14.4109 11.6393H17.0744H19.7379C19.91 11.6393 20.0496 11.4997 20.0496 11.3276V5.96232C20.0496 5.79018 20.1891 5.65063 20.3613 5.65063H26" stroke="#E79C2B" stroke-width="1.5" stroke-linecap="round"/>
<path id="Arrow 12 (Stroke)" fill-rule="evenodd" clip-rule="evenodd" d="M20.0417 16.1205L24.2495 16.1205C24.5077 16.1205 24.717 16.3298 24.717 16.588L24.717 20.7958C24.717 21.054 24.5077 21.2633 24.2495 21.2633C23.9913 21.2633 23.782 21.054 23.782 20.7958L23.782 17.7167L17.8471 23.6515C17.6646 23.8341 17.3685 23.8341 17.186 23.6515C17.0034 23.4689 17.0034 23.1729 17.186 22.9903L23.1208 17.0555L20.0417 17.0555C19.7835 17.0555 19.5742 16.8462 19.5742 16.588C19.5742 16.3298 19.7835 16.1205 20.0417 16.1205Z" fill="#E79C2B" stroke="#E79C2B" stroke-width="0.5"/>
</g>
</svg>
