<svg width="25" height="25" viewBox="0 0 25 25" fill="none" xmlns="http://www.w3.org/2000/svg">
<g id="Group 43">
<g id="m2">
<path d="M14.8064 15.9448L14.8126 11.7512C14.8126 11.2616 14.679 10.8793 14.4118 10.6042C14.1488 10.325 13.8056 10.1854 13.3822 10.1854C13.1356 10.1854 12.9013 10.2421 12.6794 10.3554C12.4574 10.4646 12.2766 10.6386 12.1368 10.8773C11.9971 11.1119 11.9272 11.4134 11.9272 11.7815L11.3477 11.5509C11.3394 11.0856 11.436 10.679 11.6374 10.3311C11.8429 9.97909 12.1224 9.70599 12.4759 9.51178C12.8294 9.31758 13.2281 9.22047 13.672 9.22047C14.3666 9.22047 14.9133 9.42884 15.3119 9.84557C15.7106 10.2583 15.91 10.8146 15.91 11.5145L15.9038 15.9448H14.8064ZM6.84082 15.9448V9.3904H7.8211V11.1443H7.94441V15.9448H6.84082ZM10.8298 15.9448L10.8359 11.7937C10.8359 11.292 10.7044 10.8995 10.4414 10.6163C10.1783 10.3291 9.82893 10.1854 9.39325 10.1854C8.96168 10.1854 8.61232 10.3311 8.34515 10.6224C8.07799 10.9137 7.94441 11.3001 7.94441 11.7815L7.36487 11.4417C7.36487 11.0169 7.46763 10.6365 7.67314 10.3007C7.87865 9.96492 8.15814 9.70194 8.51162 9.51178C8.86509 9.31758 9.26584 9.22047 9.71385 9.22047C10.1619 9.22047 10.5523 9.31353 10.8853 9.49964C11.2182 9.68576 11.4751 9.95279 11.6559 10.3007C11.8368 10.6446 11.9272 11.0553 11.9272 11.5327L11.921 15.9448H10.8298Z" fill="#E79C2B"/>
<path d="M17.2692 12.6676L17.2754 11.9879L19.7045 9.83343C19.9018 9.65946 20.0354 9.4956 20.1053 9.34185C20.1792 9.18406 20.2162 9.02829 20.2162 8.87455C20.2162 8.5711 20.1176 8.31823 19.9203 8.11594C19.723 7.9096 19.4723 7.80643 19.1681 7.80643C18.9585 7.80643 18.7715 7.85498 18.6071 7.95208C18.4427 8.04918 18.3132 8.17865 18.2187 8.34049C18.1283 8.50232 18.0851 8.6763 18.0892 8.86241H17.2877C17.2877 8.51042 17.3679 8.2009 17.5282 7.93387C17.6926 7.66684 17.9166 7.45848 18.2002 7.30878C18.4879 7.15908 18.8147 7.08423 19.1805 7.08423C19.5298 7.08423 19.8422 7.16312 20.1176 7.32091C20.3971 7.47466 20.617 7.68707 20.7773 7.95815C20.9376 8.22922 21.0177 8.53671 21.0177 8.88062C21.0177 9.12742 20.9848 9.33781 20.9191 9.51178C20.8533 9.68576 20.7526 9.84759 20.617 9.99729C20.4855 10.1429 20.3211 10.3028 20.1238 10.4767L18.1385 12.2367L18.0214 11.9393H21.0177V12.6676H17.2692Z" fill="#E79C2B"/>
</g>
<path id="Vector 1" d="M1.52441 6.50061L3.21008 4.81494L4.89575 6.50061" stroke="#E79C2B" stroke-width="1.32849" stroke-linecap="round" stroke-linejoin="round"/>
<path id="Vector 3" d="M18.381 20.5481L20.0667 22.2338L18.381 23.9194" stroke="#E79C2B" stroke-width="1.32849" stroke-linecap="round" stroke-linejoin="round"/>
<path id="Vector 2" d="M3.20996 4.81494V19.4241C3.20996 20.9757 4.46779 22.2335 6.01941 22.2335H20.0667" stroke="#E79C2B" stroke-width="1.32849"/>
<path id="Vector 4" d="M24 17.1763L24 3.69092C24 2.1393 22.7422 0.881471 21.1905 0.881471L7.14331 0.88147" stroke="#E79C2B" stroke-width="1.32849" stroke-linecap="round"/>
</g>
</svg>
