<svg width="30" height="30" viewBox="0 0 30 30" fill="none" xmlns="http://www.w3.org/2000/svg">
<g id="Icons">
<g id="Group 52">
<path id="Arrow 5" d="M2.5 22.4387C2.02171 22.7148 1.85783 23.3264 2.13397 23.8047C2.41012 24.283 3.02171 24.4469 3.5 24.1707L2.5 22.4387ZM27.0108 10.2585C27.1538 9.72505 26.8372 9.17671 26.3037 9.03377L17.6104 6.7044C17.0769 6.56146 16.5286 6.87804 16.3857 7.41151C16.2427 7.94497 16.5593 8.49331 17.0928 8.63625L24.8202 10.7068L22.7496 18.4342C22.6067 18.9677 22.9233 19.516 23.4567 19.659C23.9902 19.8019 24.5385 19.4853 24.6815 18.9519L27.0108 10.2585ZM3.5 24.1707L26.5449 10.8657L25.5449 9.13367L2.5 22.4387L3.5 24.1707Z" fill="#9E9C9C"/>
</g>
</g>
</svg>
