<svg width="30" height="30" viewBox="0 0 30 30" fill="none" xmlns="http://www.w3.org/2000/svg">
<g id="Icons">
<g id="Group 52">
<path id="Arrow 5" d="M28.7822 14.3474C29.3345 14.3474 29.7822 13.8997 29.7822 13.3474C29.7822 12.7951 29.3345 12.3474 28.7822 12.3474L28.7822 14.3474ZM1.46514 12.6403C1.07462 13.0308 1.07462 13.664 1.46514 14.0545L7.8291 20.4185C8.21963 20.809 8.85279 20.809 9.24332 20.4185C9.63384 20.028 9.63384 19.3948 9.24332 19.0043L3.58646 13.3474L9.24332 7.69056C9.63384 7.30003 9.63384 6.66687 9.24332 6.27634C8.85279 5.88582 8.21963 5.88582 7.82911 6.27634L1.46514 12.6403ZM28.7822 12.3474L2.17225 12.3474L2.17225 14.3474L28.7822 14.3474L28.7822 12.3474Z" fill="#9E9C9C"/>
</g>
</g>
</svg>
