<svg width="59" height="23" viewBox="0 0 59 23" fill="none" xmlns="http://www.w3.org/2000/svg">
<path id="Arrow 11" d="M2 9.63086C1.17157 9.63086 0.5 10.3024 0.5 11.1309C0.5 11.9593 1.17157 12.6309 2 12.6309V9.63086ZM57.6697 12.1915C58.2555 11.6057 58.2555 10.656 57.6697 10.0702L48.1237 0.524258C47.5379 -0.0615292 46.5882 -0.0615292 46.0024 0.524258C45.4166 1.11004 45.4166 2.05979 46.0024 2.64558L54.4877 11.1309L46.0024 19.6161C45.4166 20.2019 45.4166 21.1517 46.0024 21.7375C46.5882 22.3232 47.5379 22.3232 48.1237 21.7375L57.6697 12.1915ZM2 12.6309H56.609V9.63086H2V12.6309Z" fill="white"/>
</svg>
