<svg width="30" height="31" viewBox="0 0 30 31" fill="none" xmlns="http://www.w3.org/2000/svg">
<g id="Icons" clip-path="url(#clip0_600_942)">
<path id="Vector" d="M22.3967 12.8899C22.3967 14.4107 21.9549 15.8056 21.1946 16.9698C20.6375 17.8181 19.9128 18.538 19.067 19.0835C18.2213 19.629 17.2731 19.9879 16.2835 20.1373C15.9342 20.2002 15.5746 20.2317 15.2047 20.2317C14.8348 20.2317 14.4752 20.2002 14.1259 20.1373C13.1363 19.9879 12.1881 19.629 11.3424 19.0835C10.4966 18.538 9.77194 17.8181 9.21483 16.9698C8.42608 15.7619 8.0076 14.3416 8.01274 12.8899C8.01274 8.83093 11.2286 5.5481 15.2047 5.5481C19.1808 5.5481 22.3967 8.83093 22.3967 12.8899Z" stroke="#E79C2B" stroke-width="1.17425" stroke-linecap="round" stroke-linejoin="round"/>
<path id="Vector_2" d="M24.7083 22.8418L23.013 23.2509C22.6329 23.3453 22.3349 23.6389 22.2527 24.027L21.8931 25.5688C21.849 25.758 21.7542 25.931 21.6193 26.0684C21.4844 26.2059 21.3147 26.3023 21.1292 26.3469C20.9437 26.3915 20.7498 26.3826 20.569 26.3211C20.3881 26.2596 20.2277 26.148 20.1054 25.9988L15.2046 20.2512L10.3038 26.0093C10.1816 26.1585 10.0211 26.2701 9.84025 26.3316C9.65944 26.3931 9.46545 26.402 9.27996 26.3574C9.09447 26.3127 8.92479 26.2163 8.78989 26.0789C8.65499 25.9415 8.56019 25.7685 8.51608 25.5793L8.15648 24.0375C8.11277 23.8488 8.01851 23.6763 7.88424 23.5393C7.74996 23.4022 7.58098 23.306 7.39619 23.2613L5.70094 22.8523C5.52333 22.8088 5.36022 22.718 5.22832 22.589C5.09642 22.46 5.00047 22.2976 4.95029 22.1183C4.90012 21.939 4.89752 21.7494 4.94276 21.5687C4.988 21.3881 5.07947 21.223 5.20778 21.0903L9.21473 16.9998C9.77184 17.8481 10.4965 18.568 11.3423 19.1135C12.188 19.659 13.1362 20.0179 14.1258 20.1673C14.4751 20.2302 14.8347 20.2617 15.2046 20.2617C15.5745 20.2617 15.9341 20.2302 16.2834 20.1673C18.328 19.8631 20.0849 18.678 21.1945 16.9998L25.2014 21.0903C25.7665 21.6566 25.4891 22.653 24.7083 22.8418ZM15.8005 9.74196L16.4067 10.9796C16.4889 11.1474 16.7046 11.3152 16.8998 11.3467L17.9992 11.5355C18.6978 11.6508 18.8622 12.1752 18.3588 12.6892L17.506 13.5597C17.3622 13.7065 17.28 13.9897 17.3314 14.1995L17.5779 15.2798C17.7732 16.1293 17.3314 16.4649 16.5916 16.0139L15.5642 15.3951C15.4599 15.3383 15.3434 15.3086 15.2251 15.3086C15.1069 15.3086 14.9904 15.3383 14.8861 15.3951L13.8587 16.0139C13.1189 16.4545 12.6771 16.1293 12.8723 15.2798L13.1189 14.1995C13.16 14.0002 13.0881 13.7065 12.9443 13.5597L12.0915 12.6892C11.5881 12.1752 11.7525 11.6613 12.4511 11.5355L13.5505 11.3467C13.7354 11.3152 13.9511 11.1474 14.0333 10.9796L14.6395 9.74196C14.9375 9.07071 15.4717 9.07071 15.8005 9.74196Z" stroke="#E79C2B" stroke-width="1.17425" stroke-linecap="round" stroke-linejoin="round"/>
</g>
<defs>
<clipPath id="clip0_600_942">
<rect width="30" height="30" fill="white" transform="translate(0 0.650635)"/>
</clipPath>
</defs>
</svg>
