<svg width="40" height="40" viewBox="0 0 40 40" fill="none" xmlns="http://www.w3.org/2000/svg">
<g id="Frame 114">
<g id="Group 43">
<g id="m2">
<path d="M21.9899 25L21.9969 20.2671C21.9969 19.7146 21.8461 19.2831 21.5446 18.9726C21.2477 18.6575 20.8604 18.5 20.3826 18.5C20.1042 18.5 19.8398 18.5639 19.5893 18.6918C19.3389 18.8151 19.1348 19.0114 18.977 19.2808C18.8193 19.5457 18.7405 19.8858 18.7405 20.3014L18.0864 20.0411C18.0771 19.516 18.1861 19.0571 18.4134 18.6644C18.6454 18.2671 18.9608 17.9589 19.3597 17.7397C19.7587 17.5205 20.2086 17.411 20.7096 17.411C21.4936 17.411 22.1105 17.6461 22.5605 18.1164C23.0104 18.5822 23.2354 19.21 23.2354 20L23.2285 25H21.9899ZM13 25V17.6027H14.1063V19.5822H14.2455V25H13ZM17.5019 25L17.5089 20.3151C17.5089 19.7489 17.3604 19.3059 17.0635 18.9863C16.7667 18.6621 16.3724 18.5 15.8807 18.5C15.3936 18.5 14.9993 18.6644 14.6978 18.9932C14.3963 19.3219 14.2455 19.758 14.2455 20.3014L13.5914 19.9178C13.5914 19.4384 13.7074 19.0091 13.9393 18.6301C14.1713 18.2511 14.4867 17.9543 14.8857 17.7397C15.2846 17.5205 15.7369 17.411 16.2425 17.411C16.7481 17.411 17.1888 17.516 17.5645 17.726C17.9403 17.9361 18.2302 18.2374 18.4343 18.6301C18.6384 19.0183 18.7405 19.4817 18.7405 20.0205L18.7335 25H17.5019Z" fill="white"/>
<path d="M24.7695 21.3014L24.7764 20.5342L27.5179 18.1027C27.7406 17.9064 27.8913 17.7215 27.9702 17.5479C28.0537 17.3699 28.0954 17.1941 28.0954 17.0205C28.0954 16.6781 27.9841 16.3927 27.7615 16.1644C27.5388 15.9315 27.2558 15.8151 26.9126 15.8151C26.676 15.8151 26.4649 15.8699 26.2794 15.9795C26.0938 16.089 25.9477 16.2352 25.841 16.4178C25.739 16.6005 25.6903 16.7968 25.6949 17.0068H24.7903C24.7903 16.6096 24.8808 16.2603 25.0617 15.9589C25.2472 15.6575 25.5001 15.4224 25.8201 15.2534C26.1448 15.0845 26.5136 15 26.9265 15C27.3208 15 27.6733 15.089 27.9841 15.2671C28.2995 15.4406 28.5477 15.6804 28.7286 15.9863C28.9095 16.2922 29 16.6393 29 17.0274C29 17.3059 28.9629 17.5434 28.8887 17.7397C28.8144 17.9361 28.7008 18.1187 28.5477 18.2877C28.3993 18.4521 28.2137 18.6324 27.9911 18.8288L25.7506 20.8151L25.6183 20.4795H29V21.3014H24.7695Z" fill="white"/>
</g>
<path id="Vector 1" d="M7 14.3412L8.90244 12.4387L10.8049 14.3412" stroke="white" stroke-width="1.49933" stroke-linecap="round" stroke-linejoin="round"/>
<path id="Vector 3" d="M26.0243 30.1952L27.9268 32.0976L26.0243 34.0001" stroke="white" stroke-width="1.49933" stroke-linecap="round" stroke-linejoin="round"/>
<path id="Vector 2" d="M8.90234 12.4387V28.9265C8.90234 30.6777 10.3219 32.0973 12.0731 32.0973H27.9267" stroke="white" stroke-width="1.49933"/>
<path id="Vector 4" d="M32.366 26.39L32.366 11.1705C32.366 9.41936 30.9464 7.99977 29.1952 7.99977L13.3416 7.99977" stroke="white" stroke-width="1.49933" stroke-linecap="round"/>
</g>
</g>
</svg>
