<svg width="30" height="30" viewBox="0 0 30 30" fill="none" xmlns="http://www.w3.org/2000/svg">
<g id="icon">
<g id="Group 43">
<g id="m2">
<path d="M16.8064 19.2939L16.8126 15.1003C16.8126 14.6108 16.679 14.2284 16.4118 13.9533C16.1488 13.6741 15.8056 13.5345 15.3822 13.5345C15.1356 13.5345 14.9013 13.5912 14.6794 13.7045C14.4574 13.8137 14.2766 13.9877 14.1368 14.2264C13.9971 14.4611 13.9272 14.7625 13.9272 15.1307L13.3477 14.9C13.3394 14.4348 13.436 14.0282 13.6374 13.6802C13.8429 13.3282 14.1224 13.0551 14.4759 12.8609C14.8294 12.6667 15.2281 12.5696 15.672 12.5696C16.3666 12.5696 16.9133 12.778 17.3119 13.1947C17.7106 13.6074 17.91 14.1637 17.91 14.8636L17.9038 19.2939H16.8064ZM8.84082 19.2939V12.7395H9.8211V14.4934H9.94441V19.2939H8.84082ZM12.8298 19.2939L12.8359 15.1428C12.8359 14.6411 12.7044 14.2487 12.4414 13.9654C12.1783 13.6782 11.8289 13.5345 11.3933 13.5345C10.9617 13.5345 10.6123 13.6802 10.3452 13.9715C10.078 14.2628 9.94441 14.6492 9.94441 15.1307L9.36487 14.7908C9.36487 14.366 9.46763 13.9857 9.67314 13.6499C9.87865 13.314 10.1581 13.0511 10.5116 12.8609C10.8651 12.6667 11.2658 12.5696 11.7138 12.5696C12.1619 12.5696 12.5523 12.6627 12.8853 12.8488C13.2182 13.0349 13.4751 13.3019 13.6559 13.6499C13.8368 13.9938 13.9272 14.4044 13.9272 14.8818L13.921 19.2939H12.8298Z" fill="#434242"/>
<path d="M19.2692 16.0167L19.2754 15.337L21.7045 13.1826C21.9018 13.0086 22.0354 12.8447 22.1053 12.691C22.1792 12.5332 22.2162 12.3774 22.2162 12.2237C22.2162 11.9202 22.1176 11.6674 21.9203 11.4651C21.723 11.2587 21.4723 11.1555 21.1681 11.1555C20.9585 11.1555 20.7715 11.2041 20.6071 11.3012C20.4427 11.3983 20.3132 11.5278 20.2187 11.6896C20.1283 11.8514 20.0851 12.0254 20.0892 12.2115H19.2877C19.2877 11.8595 19.3679 11.55 19.5282 11.283C19.6926 11.016 19.9166 10.8076 20.2002 10.6579C20.4879 10.5082 20.8147 10.4333 21.1805 10.4333C21.5298 10.4333 21.8422 10.5122 22.1176 10.67C22.3971 10.8238 22.617 11.0362 22.7773 11.3073C22.9376 11.5783 23.0177 11.8858 23.0177 12.2297C23.0177 12.4765 22.9848 12.6869 22.9191 12.8609C22.8533 13.0349 22.7526 13.1967 22.617 13.3464C22.4855 13.4921 22.3211 13.6519 22.1238 13.8259L20.1385 15.5858L20.0214 15.2885H23.0177V16.0167H19.2692Z" fill="#434242"/>
</g>
<path id="Vector 1" d="M3.52441 9.84973L5.21008 8.16406L6.89575 9.84973" stroke="#434242" stroke-width="1.32849" stroke-linecap="round" stroke-linejoin="round"/>
<path id="Vector 3" d="M20.381 23.8972L22.0667 25.5829L20.381 27.2686" stroke="#434242" stroke-width="1.32849" stroke-linecap="round" stroke-linejoin="round"/>
<path id="Vector 2" d="M5.20996 8.16406V22.7732C5.20996 24.3248 6.46779 25.5826 8.01941 25.5826H22.0667" stroke="#434242" stroke-width="1.32849"/>
<path id="Vector 4" d="M26 20.5254L26 7.04004C26 5.48842 24.7422 4.23059 23.1905 4.23059L9.14331 4.23059" stroke="#434242" stroke-width="1.32849" stroke-linecap="round"/>
</g>
</g>
</svg>
