<svg width="40" height="40" viewBox="0 0 40 40" fill="none" xmlns="http://www.w3.org/2000/svg">
<g id="Frame 115">
<path id="Union" fill-rule="evenodd" clip-rule="evenodd" d="M32.1134 9.32748C32.275 9.30009 32.4283 9.40872 32.456 9.57029L32.9831 12.645H12.5398L32.1134 9.32748ZM4.56951 12.7527L4.55325 12.6568L31.8923 8.02304C32.7734 7.8737 33.609 8.46594 33.76 9.34674L36.3169 24.2621C36.4652 25.1269 35.8981 25.9526 35.0377 26.1247L34.0893 26.3144V30.2016C34.0893 30.7694 33.6291 31.2296 33.0613 31.2296H5.02805C4.46027 31.2296 4 30.7693 4 30.2016V13.6731C4 13.2701 4.23189 12.9212 4.56951 12.7527ZM34.0893 24.9651L34.7782 24.8273C34.9361 24.7958 35.0401 24.6443 35.0129 24.4857L34.0893 19.0983V24.9651ZM5.32747 29.9022V13.9725H32.7619V29.9022H5.32747Z" fill="white"/>
<path id="Subtract (Stroke)" fill-rule="evenodd" clip-rule="evenodd" d="M9.30967 16.1847C9.30967 15.8182 9.60684 15.521 9.97341 15.521H28.558C28.9246 15.521 29.2218 15.8182 29.2218 16.1847C29.2218 17.2068 30.0894 18.0778 31.213 18.0778C31.5795 18.0778 31.8767 18.3749 31.8767 18.7415V25.1329C31.8767 25.4995 31.5796 25.7967 31.213 25.7967C30.0895 25.7967 29.2218 26.6675 29.2218 27.6895C29.2217 28.0561 28.9246 28.3532 28.558 28.3532H9.97341C9.60684 28.3532 9.30968 28.0561 9.30967 27.6895C9.30964 26.6675 8.44201 25.7967 7.31851 25.7967C6.95194 25.7967 6.65479 25.4995 6.65479 25.1329V18.7415C6.65479 18.3749 6.95194 18.0778 7.31851 18.0778C8.44203 18.0778 9.30967 17.2067 9.30967 16.1847ZM10.5671 16.8485C10.2957 18.1115 9.26522 19.0866 7.98226 19.3404V24.534C9.26514 24.7879 10.2956 25.7628 10.567 27.0257H27.9644C28.2358 25.7628 29.2663 24.7878 30.5493 24.534V19.3404C29.2663 19.0866 28.2357 18.1115 27.9644 16.8485H10.5671Z" fill="white"/>
<path id="Ellipse 25 (Stroke)" fill-rule="evenodd" clip-rule="evenodd" d="M19.2659 24.7399C20.7321 24.7399 21.9208 23.5512 21.9208 22.085C21.9208 20.6187 20.7321 19.43 19.2659 19.43C17.7996 19.43 16.6109 20.6187 16.6109 22.085C16.6109 23.5512 17.7996 24.7399 19.2659 24.7399ZM19.2659 26.0674C21.4653 26.0674 23.2483 24.2844 23.2483 22.085C23.2483 19.8855 21.4653 18.1025 19.2659 18.1025C17.0664 18.1025 15.2834 19.8855 15.2834 22.085C15.2834 24.2844 17.0664 26.0674 19.2659 26.0674Z" fill="white"/>
<path id="Ellipse 26 (Stroke)" fill-rule="evenodd" clip-rule="evenodd" d="M11.3012 21.6404C10.9335 21.6404 10.6353 21.9386 10.6353 22.3064C10.6353 22.6742 10.9335 22.9723 11.3012 22.9723C11.669 22.9723 11.9672 22.6742 11.9672 22.3064C11.9672 21.9386 11.669 21.6404 11.3012 21.6404ZM9.31226 22.3064C9.31226 21.2079 10.2028 20.3174 11.3012 20.3174C12.3997 20.3174 13.2902 21.2079 13.2902 22.3064C13.2902 23.4049 12.3997 24.2954 11.3012 24.2954C10.2028 24.2954 9.31226 23.4049 9.31226 22.3064Z" fill="white"/>
<path id="Ellipse 27 (Stroke)" fill-rule="evenodd" clip-rule="evenodd" d="M27.2309 21.6404C26.8631 21.6404 26.565 21.9386 26.565 22.3064C26.565 22.6742 26.8631 22.9723 27.2309 22.9723C27.5987 22.9723 27.8969 22.6742 27.8969 22.3064C27.8969 21.9386 27.5987 21.6404 27.2309 21.6404ZM25.2419 22.3064C25.2419 21.2079 26.1324 20.3174 27.2309 20.3174C28.3294 20.3174 29.2199 21.2079 29.2199 22.3064C29.2199 23.4049 28.3294 24.2954 27.2309 24.2954C26.1324 24.2954 25.2419 23.4049 25.2419 22.3064Z" fill="white"/>
</g>
</svg>
