<svg width="31" height="30" viewBox="0 0 31 30" fill="none" xmlns="http://www.w3.org/2000/svg">
<g clip-path="url(#clip0_812_1228)">
<path d="M22.8967 12.2393C22.8967 13.7601 22.4549 15.155 21.6946 16.3192C21.1375 17.1674 20.4128 17.8874 19.567 18.4329C18.7213 18.9783 17.7731 19.3373 16.7835 19.4866C16.4342 19.5496 16.0746 19.581 15.7047 19.581C15.3348 19.581 14.9752 19.5496 14.6259 19.4866C13.6363 19.3373 12.6881 18.9783 11.8424 18.4329C10.9966 17.8874 10.2719 17.1674 9.71483 16.3192C8.92608 15.1113 8.5076 13.6909 8.51274 12.2393C8.51274 8.18029 11.7286 4.89746 15.7047 4.89746C19.6808 4.89746 22.8967 8.18029 22.8967 12.2393Z" stroke="white" stroke-width="1.17425" stroke-linecap="round" stroke-linejoin="round"/>
<path d="M25.2083 22.1912L23.513 22.6002C23.1329 22.6946 22.8349 22.9883 22.7527 23.3764L22.3931 24.9181C22.349 25.1074 22.2542 25.2804 22.1193 25.4178C21.9844 25.5552 21.8147 25.6516 21.6292 25.6962C21.4437 25.7409 21.2498 25.7319 21.069 25.6705C20.8881 25.609 20.7277 25.4974 20.6054 25.3481L15.7046 19.6006L10.8038 25.3586C10.6816 25.5079 10.5211 25.6195 10.3402 25.6809C10.1594 25.7424 9.96545 25.7513 9.77996 25.7067C9.59447 25.6621 9.42479 25.5657 9.28989 25.4283C9.15499 25.2909 9.06019 25.1179 9.01608 24.9286L8.65648 23.3868C8.61277 23.1982 8.51851 23.0257 8.38424 22.8886C8.24996 22.7516 8.08098 22.6553 7.89619 22.6107L6.20094 22.2017C6.02333 22.1582 5.86022 22.0673 5.72832 21.9384C5.59642 21.8094 5.50047 21.6469 5.45029 21.4677C5.40012 21.2884 5.39752 21.0987 5.44276 20.9181C5.488 20.7374 5.57947 20.5723 5.70778 20.4396L9.71473 16.3492C10.2718 17.1974 10.9965 17.9174 11.8423 18.4629C12.688 19.0084 13.6362 19.3673 14.6258 19.5167C14.9751 19.5796 15.3347 19.6111 15.7046 19.6111C16.0745 19.6111 16.4341 19.5796 16.7834 19.5167C18.828 19.2125 20.5849 18.0273 21.6945 16.3492L25.7014 20.4396C26.2665 21.006 25.9891 22.0024 25.2083 22.1912ZM16.3005 9.09133L16.9067 10.3289C16.9889 10.4968 17.2046 10.6646 17.3998 10.696L18.4992 10.8848C19.1978 11.0002 19.3622 11.5246 18.8588 12.0385L18.006 12.9091C17.8622 13.0559 17.78 13.3391 17.8314 13.5488L18.0779 14.6291C18.2732 15.4787 17.8314 15.8143 17.0916 15.3633L16.0642 14.7445C15.9599 14.6877 15.8434 14.6579 15.7251 14.6579C15.6069 14.6579 15.4904 14.6877 15.3861 14.7445L14.3587 15.3633C13.6189 15.8038 13.1771 15.4787 13.3723 14.6291L13.6189 13.5488C13.66 13.3496 13.5881 13.0559 13.4443 12.9091L12.5915 12.0385C12.0881 11.5246 12.2525 11.0107 12.9511 10.8848L14.0505 10.696C14.2354 10.6646 14.4511 10.4968 14.5333 10.3289L15.1395 9.09133C15.4375 8.42008 15.9717 8.42008 16.3005 9.09133Z" stroke="white" stroke-width="1.17425" stroke-linecap="round" stroke-linejoin="round"/>
</g>
<defs>
<clipPath id="clip0_812_1228">
<rect width="30" height="30" fill="white" transform="translate(0.5)"/>
</clipPath>
</defs>
</svg>
