<svg width="30" height="31" viewBox="0 0 30 31" fill="none" xmlns="http://www.w3.org/2000/svg">
<g id="Icons">
<g id="Union">
<path fill-rule="evenodd" clip-rule="evenodd" d="M7.99976 6.5947C7.99976 6.37992 8.17387 6.20581 8.38865 6.20581H21.611C21.8258 6.20581 21.9999 6.37992 21.9999 6.5947C21.9999 6.80948 21.8258 6.9836 21.611 6.9836H20.4446V10.8902C18.2643 11.0867 16.5557 12.9191 16.5557 15.1506C16.5557 17.3821 18.2643 19.2145 20.4446 19.411V23.3174H21.6111C21.8259 23.3174 22 23.4915 22 23.7062C22 23.921 21.8259 24.0951 21.6111 24.0951H8.38874C8.17396 24.0951 7.99985 23.921 7.99985 23.7062C7.99985 23.4915 8.17396 23.3174 8.38874 23.3174H9.55559V19.411C11.7359 19.2145 13.4445 17.3821 13.4445 15.1506C13.4445 12.9191 11.7359 11.0867 9.55559 10.8902V6.9836H8.38865C8.17387 6.9836 7.99976 6.80948 7.99976 6.5947ZM10.3334 10.2304C12.5633 10.7573 14.2223 12.7599 14.2223 15.1506C14.2223 17.5413 12.5633 19.5438 10.3334 20.0708V23.3173H19.6668V20.0708C17.4369 19.5438 15.7779 17.5413 15.7779 15.1506C15.7779 12.7599 17.4369 10.7573 19.6668 10.2304V6.98383H10.3334V10.2304Z" fill="#E79C2B"/>
<path d="M20.4446 6.9836V6.75026H20.2113V6.9836H20.4446ZM20.4446 10.8902L20.4655 11.1226L20.6779 11.1035V10.8902H20.4446ZM20.4446 19.411H20.6779V19.1977L20.4655 19.1786L20.4446 19.411ZM20.4446 23.3174H20.2113V23.5507H20.4446V23.3174ZM9.55559 23.3174V23.5507H9.78893V23.3174H9.55559ZM9.55559 19.411L9.53465 19.1786L9.32226 19.1977V19.411H9.55559ZM9.55559 10.8902H9.32226V11.1035L9.53465 11.1226L9.55559 10.8902ZM9.55559 6.9836H9.78893V6.75026H9.55559V6.9836ZM10.3334 10.2304H10.1V10.415L10.2797 10.4575L10.3334 10.2304ZM10.3334 20.0708L10.2797 19.8437L10.1 19.8861V20.0708H10.3334ZM10.3334 23.3173H10.1V23.5507H10.3334V23.3173ZM19.6668 23.3173V23.5507H19.9001V23.3173H19.6668ZM19.6668 20.0708H19.9001V19.8861L19.7205 19.8437L19.6668 20.0708ZM19.6668 10.2304L19.7205 10.4575L19.9001 10.415V10.2304H19.6668ZM19.6668 6.98383H19.9001V6.75049H19.6668V6.98383ZM10.3334 6.98383V6.75049H10.1V6.98383H10.3334ZM8.38865 5.97247C8.045 5.97247 7.76642 6.25106 7.76642 6.5947H8.23309C8.23309 6.50879 8.30274 6.43915 8.38865 6.43915V5.97247ZM21.611 5.97247H8.38865V6.43915H21.611V5.97247ZM22.2332 6.5947C22.2332 6.25106 21.9547 5.97247 21.611 5.97247V6.43915C21.6969 6.43915 21.7666 6.50879 21.7666 6.5947H22.2332ZM21.611 7.21693C21.9547 7.21693 22.2332 6.93835 22.2332 6.5947H21.7666C21.7666 6.68062 21.6969 6.75026 21.611 6.75026V7.21693ZM20.4446 7.21693H21.611V6.75026H20.4446V7.21693ZM20.6779 10.8902V6.9836H20.2113V10.8902H20.6779ZM16.789 15.1506C16.789 13.0409 18.4044 11.3083 20.4655 11.1226L20.4237 10.6578C18.1242 10.865 16.3223 12.7973 16.3223 15.1506H16.789ZM20.4655 19.1786C18.4044 18.9928 16.789 17.2602 16.789 15.1506H16.3223C16.3223 17.5039 18.1242 19.4361 20.4237 19.6434L20.4655 19.1786ZM20.6779 23.3174V19.411H20.2113V23.3174H20.6779ZM20.4446 23.5507H21.6111V23.084H20.4446V23.5507ZM21.6111 23.5507C21.697 23.5507 21.7667 23.6203 21.7667 23.7062H22.2333C22.2333 23.3626 21.9548 23.084 21.6111 23.084V23.5507ZM21.7667 23.7062C21.7667 23.7922 21.697 23.8618 21.6111 23.8618V24.3285C21.9548 24.3285 22.2333 24.0499 22.2333 23.7062H21.7667ZM21.6111 23.8618H8.38874V24.3285H21.6111V23.8618ZM8.38874 23.8618C8.30283 23.8618 8.23319 23.7922 8.23319 23.7062H7.76652C7.76652 24.0499 8.0451 24.3285 8.38874 24.3285V23.8618ZM8.23319 23.7062C8.23319 23.6203 8.30283 23.5507 8.38874 23.5507V23.084C8.0451 23.084 7.76652 23.3626 7.76652 23.7062H8.23319ZM8.38874 23.5507H9.55559V23.084H8.38874V23.5507ZM9.32226 19.411V23.3174H9.78893V19.411H9.32226ZM13.2112 15.1506C13.2112 17.2602 11.5958 18.9928 9.53465 19.1786L9.57653 19.6434C11.876 19.4361 13.6779 17.5039 13.6779 15.1506H13.2112ZM9.53465 11.1226C11.5958 11.3083 13.2112 13.0409 13.2112 15.1506H13.6779C13.6779 12.7973 11.876 10.865 9.57653 10.6578L9.53465 11.1226ZM9.32226 6.9836V10.8902H9.78893V6.9836H9.32226ZM8.38865 7.21693H9.55559V6.75026H8.38865V7.21693ZM7.76642 6.5947C7.76642 6.93835 8.045 7.21693 8.38865 7.21693V6.75026C8.30274 6.75026 8.23309 6.68062 8.23309 6.5947H7.76642ZM14.4556 15.1506C14.4556 12.6492 12.7199 10.5545 10.387 10.0033L10.2797 10.4575C12.4068 10.9601 13.989 12.8705 13.989 15.1506H14.4556ZM10.387 20.2979C12.7199 19.7466 14.4556 17.652 14.4556 15.1506H13.989C13.989 17.4307 12.4068 19.3411 10.2797 19.8437L10.387 20.2979ZM10.5667 23.3173V20.0708H10.1V23.3173H10.5667ZM19.6668 23.084H10.3334V23.5507H19.6668V23.084ZM19.4335 20.0708V23.3173H19.9001V20.0708H19.4335ZM15.5445 15.1506C15.5445 17.652 17.2803 19.7466 19.6132 20.2979L19.7205 19.8437C17.5934 19.3411 16.0112 17.4307 16.0112 15.1506H15.5445ZM19.6132 10.0033C17.2803 10.5545 15.5445 12.6492 15.5445 15.1506H16.0112C16.0112 12.8705 17.5934 10.9601 19.7205 10.4575L19.6132 10.0033ZM19.4335 6.98383V10.2304H19.9001V6.98383H19.4335ZM10.3334 7.21716H19.6668V6.75049H10.3334V7.21716ZM10.5667 10.2304V6.98383H10.1V10.2304H10.5667Z" fill="#E79C2B"/>
</g>
</g>
</svg>
