<svg width="25" height="25" viewBox="0 0 25 25" fill="none" xmlns="http://www.w3.org/2000/svg">
<g clip-path="url(#clip0_812_1216)">
<path fill-rule="evenodd" clip-rule="evenodd" d="M23.905 17.365C23.361 16.2695 22.6442 15.2687 21.782 14.401C21.4936 14.0752 21.1917 13.7616 20.877 13.461L20.839 13.424C20.7222 13.3106 20.6068 13.1956 20.493 13.079C21.6716 11.4401 22.6801 9.68541 23.503 7.84205L23.536 7.76805L23.559 7.69005C23.668 7.32705 23.792 6.63705 23.352 6.01305C22.896 5.36905 22.167 5.25305 21.678 5.25305H19.431C18.9605 5.23161 18.4953 5.35955 18.1019 5.61856C17.7086 5.87757 17.4072 6.25437 17.241 6.69505C16.7574 7.84669 16.152 8.94326 15.435 9.96605V7.33305C15.435 6.99305 15.403 6.42305 15.038 5.94305C14.602 5.36705 13.971 5.25305 13.533 5.25305H9.967C9.50167 5.24234 9.05005 5.41101 8.70567 5.72412C8.36128 6.03724 8.15051 6.47081 8.117 6.93505L8.114 6.98005V7.02505C8.114 7.51005 8.306 7.86805 8.46 8.09305C8.529 8.19405 8.602 8.28605 8.649 8.34405L8.659 8.35705C8.709 8.41905 8.742 8.46005 8.775 8.50605C8.863 8.62405 8.988 8.80805 9.024 9.28205V10.755C8.30818 9.55637 7.72124 8.28529 7.273 6.96305L7.265 6.94105L7.257 6.92005C7.135 6.60105 6.94 6.13705 6.549 5.78305C6.093 5.36805 5.553 5.25305 5.062 5.25305H2.782C2.285 5.25305 1.686 5.36905 1.239 5.84005C0.8 6.30405 0.75 6.86005 0.75 7.15405V7.28805L0.778 7.41805C1.4093 10.3488 2.71024 13.0938 4.579 15.438C5.43338 16.7854 6.59329 17.9123 7.96465 18.7275C9.33601 19.5427 10.8802 20.0232 12.472 20.13L12.513 20.133H12.555C13.281 20.133 14.038 20.07 14.607 19.691C15.374 19.179 15.435 18.394 15.435 18.002V16.864C15.632 17.024 15.876 17.238 16.175 17.526C16.537 17.888 16.825 18.202 17.072 18.476L17.204 18.622C17.396 18.836 17.585 19.047 17.757 19.22C17.973 19.437 18.24 19.676 18.574 19.853C18.937 20.044 19.318 20.131 19.722 20.131H22.003C22.484 20.131 23.173 20.017 23.658 19.455C24.186 18.843 24.146 18.092 23.98 17.553L23.95 17.456L23.905 17.365ZM18.185 17.471C17.8751 17.1246 17.556 16.7865 17.228 16.457L17.225 16.454C15.868 15.146 15.235 14.919 14.787 14.919C14.548 14.919 14.285 14.945 14.114 15.159C14.037 15.2611 13.9865 15.3807 13.967 15.507C13.9429 15.6538 13.9322 15.8024 13.935 15.951V18.002C13.935 18.257 13.893 18.364 13.775 18.442C13.618 18.547 13.283 18.632 12.564 18.632C11.1982 18.5391 9.87398 18.1233 8.70018 17.4189C7.52637 16.7145 6.53652 15.7416 5.812 14.58L5.804 14.567L5.794 14.555C4.05312 12.3882 2.83984 9.84629 2.25 7.13005C2.254 7.00005 2.282 6.92105 2.328 6.87305C2.375 6.82305 2.49 6.75305 2.782 6.75305H5.062C5.315 6.75305 5.447 6.80905 5.542 6.89405C5.648 6.99205 5.742 7.15705 5.854 7.45105C6.414 9.09705 7.17 10.637 7.887 11.768C8.245 12.334 8.597 12.805 8.915 13.138C9.074 13.304 9.229 13.442 9.378 13.54C9.521 13.634 9.684 13.709 9.852 13.709C9.94 13.709 10.043 13.699 10.142 13.656C10.2489 13.6088 10.3369 13.5271 10.392 13.424C10.495 13.236 10.524 12.959 10.524 12.596V9.22305C10.471 8.40505 10.224 7.94405 9.984 7.61705C9.9354 7.55164 9.88538 7.48729 9.834 7.42405L9.821 7.40805C9.77836 7.35625 9.73766 7.30288 9.699 7.24805C9.64977 7.1869 9.62015 7.11231 9.614 7.03405C9.62185 6.95458 9.65976 6.88112 9.71999 6.8287C9.78022 6.77628 9.85821 6.74885 9.938 6.75205H13.533C13.739 6.75205 13.808 6.80205 13.843 6.84905C13.893 6.91405 13.935 7.04905 13.935 7.33305V11.861C13.935 12.399 14.183 12.763 14.543 12.763C14.957 12.763 15.256 12.512 15.778 11.99L15.787 11.98L15.795 11.971C16.966 10.5433 17.9227 8.95262 18.635 7.24905L18.639 7.23705C18.6925 7.08653 18.7938 6.95766 18.9274 6.87009C19.061 6.78252 19.2196 6.74107 19.379 6.75205H21.679C21.991 6.75205 22.093 6.83205 22.127 6.87905C22.162 6.92905 22.187 7.03605 22.127 7.24605C21.3056 9.0824 20.2901 10.8256 19.098 12.446L19.09 12.458C18.975 12.635 18.848 12.831 18.83 13.055C18.81 13.297 18.914 13.516 19.097 13.752C19.23 13.948 19.505 14.217 19.784 14.49L19.81 14.516C20.102 14.802 20.419 15.112 20.673 15.412L20.68 15.419L20.687 15.427C21.4444 16.1825 22.0743 17.0559 22.552 18.013C22.628 18.273 22.582 18.407 22.522 18.476C22.453 18.556 22.298 18.631 22.004 18.631H19.722C19.5665 18.6348 19.4126 18.5987 19.275 18.526C19.1064 18.428 18.9534 18.3053 18.821 18.162C18.678 18.019 18.523 17.846 18.333 17.635L18.186 17.471H18.185Z" fill="#F2F2F2"/>
</g>
<defs>
<clipPath id="clip0_812_1216">
<rect width="24" height="24" fill="white" transform="translate(0.5 0.5)"/>
</clipPath>
</defs>
</svg>
